<?xml version="1.0" encoding="UTF-8"?>
<svg version="1.1" xmlns="http://www.w3.org/2000/svg" width="1024" height="1024">
<path d="M0 0 C3.83391346 0.01763411 7.66780882 0.01140354 11.50175154 0.0083909 C18.1098883 0.00631572 24.7178644 0.01862933 31.32596076 0.04134226 C40.87957161 0.07415756 50.43310654 0.08429906 59.98676763 0.08929422 C75.49517824 0.09800119 91.00350364 0.12449038 106.51186812 0.16250467 C121.55711125 0.1993449 136.60233105 0.22759748 151.64761031 0.24453592 C152.57843338 0.24558682 153.50925646 0.24663771 154.4682863 0.24772045 C159.1389774 0.25294143 163.80966866 0.25799607 168.48036003 0.26296806 C207.09354276 0.30428655 245.70663042 0.37460776 284.31972945 0.46426249 C284.31972945 1.12426249 284.31972945 1.78426249 284.31972945 2.46426249 C285.46183882 2.4294578 286.6039482 2.39465311 287.78066695 2.35879374 C292.3385094 2.36380235 296.51801546 3.12272226 300.94472945 4.15176249 C301.72018111 4.32675272 302.49563277 4.50174295 303.29458296 4.68203592 C309.59106428 6.16204158 315.57274874 8.17186764 321.5970732 10.51113749 C324.31087022 11.62946786 324.31087022 11.62946786 327.31972945 11.46426249 C327.31972945 12.12426249 327.31972945 12.78426249 327.31972945 13.46426249 C328.19500288 13.73238749 329.07027632 14.00051249 329.9720732 14.27676249 C340.65219711 18.06527785 349.59020699 25.43834804 358.31972945 32.46426249 C358.99906538 32.98762186 359.67840132 33.51098124 360.3783232 34.05019999 C380.20613916 49.89413607 392.00104133 76.27445981 397.31972945 100.46426249 C397.31972945 101.78426249 397.31972945 103.10426249 397.31972945 104.46426249 C397.97972945 104.79426249 398.63972945 105.12426249 399.31972945 105.46426249 C399.6986357 108.33535624 399.6986357 108.33535624 399.88222945 111.90176249 C399.97980397 116.34272929 399.97980397 116.34272929 401.31972945 120.46426249 C401.41351711 123.31275268 401.44540439 126.13660507 401.43325484 128.9852128 C401.4334037 129.87769179 401.43355256 130.77017078 401.43370593 131.68969458 C401.43300811 134.69831433 401.42515076 137.70687398 401.4173857 140.71548319 C401.41546772 142.86527329 401.41400336 145.01506383 401.41296065 147.16485453 C401.40979276 151.80351249 401.40351377 156.44215239 401.39489424 161.08080339 C401.38140941 168.41241304 401.3754855 175.74401659 401.37075484 183.07563639 C401.35869063 199.96683985 401.3366508 216.85802762 401.3145262 233.74922037 C401.29436142 249.21845972 401.276285 264.68769378 401.26631129 280.1569435 C401.26132138 287.44800668 401.25144999 294.73904222 401.2378813 302.03009427 C401.23043092 306.56452726 401.22710782 311.09895642 401.22491515 315.63339472 C401.22304022 317.73891093 401.21943349 319.8444264 401.21398222 321.94993639 C401.20678279 324.82076254 401.20572772 327.69152762 401.20620406 330.56236124 C401.2026091 331.39855047 401.19901413 332.2347397 401.19531024 333.096268 C401.20230352 337.02243104 401.34747465 340.63044862 402.31972945 344.46426249 C401.65972945 344.46426249 400.99972945 344.46426249 400.31972945 344.46426249 C400.35525923 345.53458719 400.39078902 346.6049119 400.42739546 347.70767069 C403.7247819 449.33591314 403.7247819 449.33591314 367.30410445 488.39394999 C366.6492607 489.07715311 365.99441695 489.76035624 365.31972945 490.46426249 C364.49472945 491.33051249 363.66972945 492.19676249 362.81972945 493.08926249 C361.99472945 493.87301249 361.16972945 494.65676249 360.31972945 495.46426249 C359.45928023 496.31697733 359.45928023 496.31697733 358.5814482 497.18691874 C331.08728031 523.2313 291.61281043 529.96072147 255.16836226 529.86489725 C253.15033246 529.87065934 251.13230609 529.87775 249.11428511 529.88604593 C244.81753275 529.90099888 240.52090333 529.90694739 236.2241255 529.90551805 C229.42330362 529.90346273 222.62264438 529.92319042 215.82186568 529.94569254 C202.62876211 529.98641816 189.43567213 530.00522608 176.24251997 530.02186441 C159.4060589 530.04431769 142.56963611 530.07781383 125.73323762 530.12906355 C118.97765735 530.14892534 112.22216405 530.15856096 105.46655571 530.1600157 C101.26842606 530.1627708 97.07034443 530.17360971 92.87223494 530.18652582 C90.93125793 530.1907946 88.99026995 530.19167289 87.0492903 530.18885088 C84.39317165 530.18543264 81.7373541 530.19427192 79.08126509 530.20597696 C77.9397722 530.20000532 77.9397722 530.20000532 76.77521884 530.19391304 C68.52550382 530.25802698 61.4049891 531.81566445 54.38222945 536.27676249 C53.43525191 536.8611912 53.43525191 536.8611912 52.46914351 537.45742655 C45.76500386 541.6732299 39.40431902 546.36737416 33.02285445 551.05019999 C27.44993272 555.12560406 21.75124605 559.00994608 16.03945601 562.88711405 C8.83779143 567.77588151 1.7162908 572.77515144 -5.39902055 577.78848124 C-13.69299909 583.62860981 -22.0130196 589.42782801 -30.43027055 595.08926249 C-31.50051469 595.81568949 -31.50051469 595.81568949 -32.59237993 596.55679178 C-47.14725447 606.27776066 -47.14725447 606.27776066 -55.71933305 605.21035624 C-60.24614364 604.26938999 -63.39451014 602.84390177 -66.68027055 599.46426249 C-71.57650061 591.94505203 -70.82095933 582.63853591 -70.74277055 573.97988749 C-70.73709062 572.51370981 -70.73709062 572.51370981 -70.73129594 571.01791239 C-70.71512619 566.87985726 -70.68704622 562.74190534 -70.65976274 558.60391092 C-69.40738551 539.04426099 -69.40738551 539.04426099 -73.68027055 520.46426249 C-76.17335635 518.96311283 -78.47982734 517.76168169 -81.11777055 516.58926249 C-82.57951185 515.89838811 -84.03914801 515.20304266 -85.4966768 514.50332499 C-86.21226762 514.16075663 -86.92785844 513.81818827 -87.66513383 513.46523905 C-115.16809878 499.80372266 -135.94247111 473.19258085 -145.68027055 444.46426249 C-146.82620672 440.70099719 -147.84873839 436.90895438 -148.82089555 433.09707499 C-149.24628618 431.7938328 -149.24628618 431.7938328 -149.68027055 430.46426249 C-150.34027055 430.13426249 -151.00027055 429.80426249 -151.68027055 429.46426249 C-151.65964555 428.72176249 -151.63902055 427.97926249 -151.61777055 427.21426249 C-151.56960496 424.60258552 -151.56960496 424.60258552 -152.14946401 422.69624281 C-155.00177695 410.70259568 -153.81789554 397.09440253 -153.79379594 384.85122538 C-153.79351326 382.81948202 -153.79367338 380.78773857 -153.79423845 378.75599527 C-153.79452327 373.28597449 -153.78867771 367.81597601 -153.78166449 362.34596038 C-153.77537828 356.61248197 -153.77482301 350.87900296 -153.77363908 345.14552164 C-153.77054122 334.30873031 -153.7623488 323.47194916 -153.75228959 312.63516229 C-153.7410803 300.28922241 -153.73560591 287.94328203 -153.73059416 275.59733832 C-153.72016477 250.21964074 -153.70259546 224.84195219 -153.68027055 199.46426249 C-154.34027055 199.13426249 -155.00027055 198.80426249 -155.68027055 198.46426249 C-155.02027055 198.46426249 -154.36027055 198.46426249 -153.68027055 198.46426249 C-153.71580034 197.57456766 -153.75133012 196.68487284 -153.78793657 195.76821756 C-154.45110884 178.6065591 -154.94859577 161.61592197 -153.68027055 144.46426249 C-154.34027055 144.13426249 -155.00027055 143.80426249 -155.68027055 143.46426249 C-155.02027055 143.46426249 -154.36027055 143.46426249 -153.68027055 143.46426249 C-153.695981 142.9025535 -153.71169145 142.34084452 -153.72787797 141.76211405 C-154.05883331 127.99325493 -153.20395851 114.99824515 -150.68027055 101.46426249 C-150.56280473 100.7886326 -150.44533891 100.11300272 -150.32431352 99.4168992 C-148.87085853 91.07487152 -146.49202384 83.99843108 -142.68027055 76.46426249 C-142.09420383 75.21684513 -141.51105678 73.96805338 -140.93027055 72.71816874 C-126.83060782 42.82630261 -102.74372897 20.5264113 -71.72714555 8.97207499 C-48.53724858 0.77534924 -24.3536998 -0.1412236 0 0 Z M7.50722945 92.96426249 C5.13114337 95.96563438 5.19373945 98.10406356 5.19109499 101.86574125 C5.18787055 103.01964379 5.1846461 104.17354633 5.18132395 105.36241561 C5.18287255 106.64108322 5.18442115 107.91975082 5.18601668 109.23716593 C5.18414993 110.60063814 5.18184977 111.96410981 5.17915136 113.32758063 C5.17301002 117.08733588 5.17316968 120.84706897 5.17434573 124.60682809 C5.17454915 128.65669134 5.16903655 132.70654735 5.16428816 136.75640726 C5.15596803 144.69608283 5.1532327 152.63575098 5.15267579 160.57543055 C5.15220122 167.02747765 5.15014947 173.4795223 5.14697516 179.93156862 C5.13816449 198.21114716 5.13355637 216.49071981 5.13430563 234.77030049 C5.13434559 235.7565516 5.13438555 236.74280271 5.13442671 237.75894022 C5.13446759 238.74639115 5.13450847 239.73384209 5.13455059 240.75121578 C5.13495707 256.75560715 5.12538814 272.759975 5.11128835 288.76435957 C5.09693593 305.1846589 5.09001755 321.60494675 5.09088212 338.02525252 C5.09121451 347.24914253 5.0884493 356.47300789 5.07770407 365.69689226 C5.06861393 373.55060009 5.06641151 381.40427209 5.0732135 389.25798289 C5.07648638 393.26664376 5.07650783 397.27523585 5.06786025 401.28389025 C5.06002798 404.95226937 5.06139295 408.62052477 5.07014438 412.28890076 C5.07241833 414.24756387 5.06482504 416.20623072 5.05690473 418.16487914 C5.06150353 419.32660492 5.06610232 420.4883307 5.07084048 421.6852603 C5.07062311 422.68777698 5.07040574 423.69029367 5.07018179 424.72318965 C5.34125595 427.70071317 5.94651513 429.81166272 7.31972945 432.46426249 C13.95553457 436.88813257 23.76300631 435.62336732 31.51504195 435.63223124 C32.54732924 435.63555964 33.57961653 435.63888803 34.64318526 435.6423173 C36.80961347 435.64734654 38.97604931 435.64972687 41.14248335 435.64956522 C44.44258024 435.65176106 47.74234733 435.66998506 51.0423857 435.68887186 C53.15826998 435.69180483 55.27415584 435.69379027 57.39004195 435.69473124 C58.36732253 435.70191675 59.3446031 435.70910227 60.35149825 435.71650553 C69.83279535 435.76200246 69.83279535 435.76200246 78.25722945 431.96426249 C80.124701 429.32783206 80.44877047 427.63568397 80.47121871 424.45428324 C80.47956236 423.61589914 80.48790602 422.77751505 80.49650252 421.91372538 C80.50068694 420.99212626 80.50487135 420.07052713 80.50918257 419.12100077 C80.52162253 417.66716486 80.52162253 417.66716486 80.5343138 416.18395853 C80.55173968 414.07447952 80.5668995 411.96498088 80.58009017 409.85547113 C80.60107824 406.51887004 80.62810524 403.1823672 80.65676558 399.84582376 C80.71653422 392.76034093 80.76864151 385.67481252 80.81972945 378.58926249 C80.87892947 370.38749475 80.94123696 362.18577523 81.01160872 353.9840951 C81.03820399 350.69365587 81.05900817 347.40321189 81.07961714 344.1127305 C81.09622089 342.09725574 81.1130928 340.08178317 81.13027632 338.06631327 C81.13446074 337.14876261 81.13864516 336.23121195 81.14295638 335.28585672 C81.15130003 334.44183298 81.15964369 333.59780924 81.16824019 332.72820902 C81.17339392 331.99705944 81.17854765 331.26590986 81.18385756 330.51260424 C81.32701829 328.35437934 81.60999204 326.50970945 82.31972945 324.46426249 C87.91657162 321.42597673 94.24193419 321.33918176 100.47646773 321.30654764 C101.16698225 321.30146692 101.85749678 321.2963862 102.56893599 321.29115152 C104.06171231 321.28049786 105.55450411 321.27185831 107.04730284 321.26503229 C109.4309067 321.25312077 111.81433911 321.23363021 114.19787276 321.21191263 C120.97329426 321.15076361 127.74870178 321.09670805 134.52431929 321.0628953 C175.15600158 320.84861257 212.68930931 317.2916018 243.50722945 287.58926249 C256.89880059 273.82164099 264.57987279 256.84706424 269.31972945 238.46426249 C269.49907027 237.77622538 269.67841109 237.08818827 269.86318648 236.37930155 C273.62676385 221.063373 273.23390867 204.15351707 272.31972945 188.46426249 C271.98972945 188.13426249 271.65972945 187.80426249 271.31972945 187.46426249 C271.20997257 185.7782749 271.13335532 184.0901204 271.06972945 182.40176249 C269.3732866 160.10944321 257.7054329 139.0995865 242.31972945 123.46426249 C241.05322554 122.17262186 241.05322554 122.17262186 239.7611357 120.85488749 C209.01795499 90.75116493 165.66003435 89.12454062 125.21936715 89.19561148 C121.36788002 89.20075287 117.51640138 89.19595916 113.66491377 89.19283915 C107.21861711 89.18922892 100.77236671 89.19392679 94.3260771 89.2035203 C86.88672635 89.21446417 79.44748475 89.21082474 72.00813651 89.19986749 C65.58390401 89.19078726 59.15970428 89.18951099 52.73546743 89.19474483 C48.91370463 89.19785218 45.0919932 89.19830663 41.27023375 89.19167185 C37.68967365 89.18588597 34.10925487 89.18991781 30.52871001 89.20146036 C28.59536363 89.20535204 26.66200525 89.19943654 24.72866499 89.19320536 C22.99267546 89.20166483 22.99267546 89.20166483 21.22161543 89.2102952 C19.72026392 89.21142628 19.72026392 89.21142628 18.18858206 89.2125802 C14.19567359 89.56287506 10.63199851 90.37824671 7.50722945 92.96426249 Z " fill="#128FFE" transform="translate(387.6802705526352,231.53573751449585)"/>
<path d="M0 0 C0.78117691 0.00132935 1.56235382 0.00265869 2.36720276 0.00402832 C4.87410263 0.01286601 7.38004267 0.04420646 9.88671875 0.078125 C11.61539225 0.09271365 13.34407085 0.1067093 15.07275391 0.12011719 C19.20148685 0.15797393 23.32945446 0.21783171 27.45770264 0.29101562 C29.28700172 0.32308916 31.11639734 0.34956586 32.94580078 0.375 C51.53837725 0.68753499 69.71251588 4.1573497 83.7890625 17.3671875 C88.13119014 22.13687694 92.02281004 27.02465356 93.57421875 33.328125 C94.23421875 33.658125 94.89421875 33.988125 95.57421875 34.328125 C96.22857868 36.82249702 96.75394339 39.23251561 97.19921875 41.765625 C97.39378662 42.86269775 97.39378662 42.86269775 97.59228516 43.98193359 C100.08347022 58.7559997 98.02546397 73.63407983 89.57421875 86.328125 C77.13258599 101.25417185 62.18454701 107.36731582 43.12365723 109.14709473 C35.03957408 109.7211285 26.91640338 109.62026392 18.81665039 109.58886719 C15.48631005 109.57804241 12.156497 109.58887462 8.82617188 109.6015625 C6.6888009 109.60024249 4.55143026 109.59768338 2.4140625 109.59375 C1.42856918 109.59779846 0.44307587 109.60184692 -0.57228088 109.60601807 C-5.89990738 109.56985803 -10.42849006 109.24507424 -15.42578125 107.328125 C-20.26129032 102.23811545 -20.58090965 98.62959664 -20.6027832 91.84277344 C-20.6093544 90.96454422 -20.6159256 90.086315 -20.62269592 89.18147278 C-20.64245212 86.26681437 -20.65409722 83.35220756 -20.6640625 80.4375 C-20.67017579 78.94553982 -20.67017579 78.94553982 -20.67641258 77.42343903 C-20.6972841 72.15810859 -20.71158064 66.89280429 -20.72094727 61.62744141 C-20.73200864 56.18879918 -20.76640244 50.75056645 -20.80611897 45.31206894 C-20.83226754 41.13072957 -20.84063759 36.94948797 -20.84422874 32.76807404 C-20.84909994 30.76342252 -20.86072905 28.75877552 -20.87926674 26.7542038 C-20.90361859 23.9461579 -20.90270025 21.13917389 -20.89575195 18.33105469 C-20.90856201 17.50485123 -20.92137207 16.67864777 -20.93457031 15.82740784 C-20.88705747 10.55155252 -19.99749104 7.46701235 -16.42578125 3.328125 C-11.53559431 0.06522236 -5.70074804 -0.09599272 0 0 Z " fill="#128EFE" transform="translate(488.42578125,382.671875)"/>
<path d="M0 0 C0.99 0.495 0.99 0.495 2 1 C2 2.32 2 3.64 2 5 C2.66 5.33 3.32 5.66 4 6 C4.37890625 8.87109375 4.37890625 8.87109375 4.5625 12.4375 C4.66007452 16.8784668 4.66007452 16.8784668 6 21 C6.0964457 23.09669004 6.12630999 25.19653371 6.12698364 27.29544067 C6.12932363 28.2762584 6.12932363 28.2762584 6.13171089 29.27689064 C6.13571618 31.480352 6.13253234 33.68374508 6.12939453 35.88720703 C6.13074938 37.46477295 6.13252979 39.04233856 6.13470459 40.61990356 C6.13928604 44.92866357 6.13748196 49.23739976 6.1343255 53.54616022 C6.1317853 58.09879779 6.13414593 62.65143339 6.13571167 67.20407104 C6.13753701 74.89988566 6.13512639 82.59569074 6.13037109 90.29150391 C6.12560144 98.09815093 6.12548435 105.90477883 6.13037109 113.71142578 C6.18144178 197.17340892 6.18144178 197.17340892 5 237 C4.67 237 4.34 237 4 237 C3.10784012 228.9399249 2.86661868 220.99185208 2.90234375 212.88696289 C2.90458691 210.9397144 2.90682965 208.9924659 2.90905762 207.04521739 C2.91241132 204.96439618 2.91826465 202.88359547 2.92483521 200.80278206 C2.93862791 196.37677907 2.94431373 191.95078573 2.94897461 187.52476501 C2.961857 176.47991378 2.98581452 165.43508929 3.01037598 154.39025879 C3.08765642 119.37687168 3.10264927 84.36697655 2.65256882 49.35574794 C2.62531034 47.14624889 2.60137529 44.9367374 2.57839966 42.72719002 C2.53512415 38.63228824 2.47568256 34.53778246 2.4140625 30.44311523 C2.40250626 29.25294989 2.39095001 28.06278454 2.37904358 26.83655357 C2.26330511 20.28521729 1.67558533 14.07602271 0.42294312 7.64067173 C0.00701269 5.04378415 -0.0740502 2.62470734 0 0 Z " fill="#0A7DF9" transform="translate(783,331)"/>
<path d="M0 0 C0.33 0.66 0.66 1.32 1 2 C0.53384875 2.75954294 0.06769751 3.51908588 -0.41257954 4.30164528 C-3.14468841 9.48191491 -2.42067586 15.47439712 -2.39872742 21.17367554 C-2.40416886 22.53179408 -2.41092125 23.8899079 -2.41886932 25.24801409 C-2.43689091 28.97422952 -2.43633805 32.70024562 -2.43273985 36.42649436 C-2.43211604 40.44690912 -2.44873572 44.46725697 -2.46325684 48.48764038 C-2.4860507 55.45131297 -2.4979293 62.4149355 -2.50238609 69.37864304 C-2.50884564 79.44697085 -2.53177958 89.51520816 -2.55872939 99.58349951 C-2.60200686 115.9187721 -2.63196813 132.25404088 -2.65356445 148.58935547 C-2.67457126 164.45721306 -2.70184376 180.32503948 -2.73754883 196.19287109 C-2.73974765 197.1710293 -2.74194648 198.14918751 -2.74421193 199.15698688 C-2.75528151 204.06413868 -2.76647434 208.97129019 -2.77772844 213.87844157 C-2.87092714 254.58560035 -2.94251881 295.29277612 -3 336 C-3.33 336 -3.66 336 -4 336 C-4.09150923 293.91768782 -4.16201517 251.8353871 -4.20426132 209.75299518 C-4.20926428 204.78739702 -4.21444156 199.82179905 -4.21972656 194.85620117 C-4.2207758 193.86761923 -4.22182505 192.8790373 -4.22290608 191.86049833 C-4.2403223 175.84302643 -4.27186669 159.82561182 -4.30861118 143.80817393 C-4.34598675 127.37890307 -4.36822868 110.94966227 -4.37635398 94.52035064 C-4.38184878 84.37849364 -4.39921798 74.23679857 -4.43166587 64.09499141 C-4.45277199 57.14507819 -4.45920891 50.19524895 -4.45400551 43.24530599 C-4.45143763 39.23252241 -4.45543772 35.22002223 -4.4768219 31.20728874 C-4.49624924 27.53502023 -4.49729529 23.86322639 -4.48359558 20.19093629 C-4.48109812 18.23016461 -4.49838444 16.26939873 -4.51632524 14.30870754 C-4.50836104 13.14574836 -4.50039685 11.98278918 -4.49219131 10.78458881 C-4.49446964 9.27918756 -4.49446964 9.27918756 -4.49679399 7.74337417 C-3.86912324 4.27727805 -2.35597084 2.55842962 0 0 Z " fill="#0476FA" transform="translate(395,322)"/>
<path d="M0 0 C0.495 0.99 0.495 0.99 1 2 C1.66 2.33 2.32 2.66 3 3 C2.34 3 1.68 3 1 3 C1.05329468 4.60548706 1.05329468 4.60548706 1.10766602 6.2434082 C4.40624061 107.90827092 4.40624061 107.90827092 -31.99609375 146.90625 C-32.65738281 147.5971875 -33.31867187 148.288125 -34 149 C-34.75990234 149.81984375 -34.75990234 149.81984375 -35.53515625 150.65625 C-37.81391732 153.05347877 -39.92433566 154.74695157 -43 156 C-43 155.34 -43 154.68 -43 154 C-41.63671875 152.73046875 -41.63671875 152.73046875 -39.6875 151.1875 C-16.71716462 131.55091241 -4.64913656 101.70923551 -2.19482422 72.11325073 C-1.47133566 60.5520532 -1.55664205 48.92453118 -1.45739746 37.34381104 C-1.4047274 31.3050112 -1.34027481 25.26635932 -1.26918221 19.22775078 C-1.24646774 17.13215943 -1.23014448 15.03658742 -1.21446228 12.94093323 C-1.20097244 11.67788864 -1.1874826 10.41484406 -1.17358398 9.11352539 C-1.15931618 7.44623131 -1.15931618 7.44623131 -1.14476013 5.74525452 C-1 3 -1 3 0 0 Z " fill="#0C7DF8" transform="translate(787,573)"/>
<path d="M0 0 C2.89989787 2.89989787 3.3222683 6.44531828 4.3125 10.3125 C9.75361232 30.56888044 18.79347687 47.68694054 33.27734375 62.96875 C35 65 35 65 35 67 C35.56460938 67.24621094 36.12921875 67.49242187 36.7109375 67.74609375 C39.39079272 69.21406905 41.37958803 70.9935669 43.625 73.0625 C46.58789167 75.85780458 46.58789167 75.85780458 50 78 C50 78.66 50 79.32 50 80 C51.0828125 80.4021875 51.0828125 80.4021875 52.1875 80.8125 C54.97590126 81.98982498 57.44095724 83.39145884 60 85 C57 86 57 86 54.72265625 84.953125 C47.01638161 80.01929865 40.55838497 74.32213191 34 68 C33.35289062 67.41605469 32.70578125 66.83210937 32.0390625 66.23046875 C15.60188082 50.98942001 4.61855785 27.70722188 0 6 C-0.05967491 4.00089047 -0.07813579 1.99847312 0 0 Z " fill="#0F7EF8" transform="translate(238,656)"/>
<path d="M0 0 C0.33 0 0.66 0 1 0 C0.88426734 1.85476817 0.75691885 3.70881274 0.625 5.5625 C0.55539063 6.59503906 0.48578125 7.62757813 0.4140625 8.69140625 C0 12 0 12 -0.95581055 15.24755859 C-5.11208889 30.18372837 -4.21550297 46.0936472 -4.0625 61.4375 C-4.02548285 65.85284113 -3.99526688 70.2681552 -3.97265625 74.68359375 C-3.96706696 75.73880219 -3.96147766 76.79401062 -3.95571899 77.88119507 C-3.93828068 86.94885402 -4.34258696 95.95820979 -5 105 C-5.33 105 -5.66 105 -6 105 C-6.73294344 87.2714111 -7.29717458 69.72140041 -6 52 C-6.66 51.67 -7.32 51.34 -8 51 C-7.34 51 -6.68 51 -6 51 C-6.01571045 50.43829102 -6.0314209 49.87658203 -6.04760742 49.29785156 C-6.29921517 38.83012007 -6.25636925 28.55930356 -4.6875 18.1875 C-4.56979248 17.39569336 -4.45208496 16.60388672 -4.33081055 15.78808594 C-3.42639547 10.31877607 -1.888639 5.20708202 0 0 Z " fill="#0D7DFA" transform="translate(240,324)"/>
<path d="M0 0 C10.75387267 1.68502582 19.71336078 10.39028908 28 17 C28.68191406 17.52464844 29.36382813 18.04929687 30.06640625 18.58984375 C42.63275575 28.64875461 52.10887762 44.16931283 58.6875 58.6875 C59.21452515 59.83714233 59.21452515 59.83714233 59.75219727 61.01000977 C60.06471436 61.73244873 60.37723145 62.4548877 60.69921875 63.19921875 C60.97596436 63.83690186 61.25270996 64.47458496 61.5378418 65.1315918 C62.09919634 67.40102989 61.72393936 68.80507425 61 71 C59.87167643 68.45976352 58.74726572 65.91791162 57.625 63.375 C57.30789063 62.66214844 56.99078125 61.94929688 56.6640625 61.21484375 C54.89403488 57.19540604 53.31133626 53.19892519 52 49 C51.34 49 50.68 49 50 49 C49.76667969 48.42894531 49.53335938 47.85789062 49.29296875 47.26953125 C45.55564205 38.96289347 40.04679 32.68353189 34 26 C33.36320313 25.2678125 32.72640625 24.535625 32.0703125 23.78125 C23.49637038 14.48328611 11.53375915 7.01829424 0 2 C0 1.34 0 0.68 0 0 Z " fill="#0D7EF7" transform="translate(718,247)"/>
<path d="M0 0 C0.99 0.495 0.99 0.495 2 1 C-5.06941411 6.56431304 -12.18394821 11.88904245 -19.71875 16.81640625 C-23.6155596 19.40964026 -27.43357656 22.10294686 -31.25 24.8125 C-38.1188057 29.6841945 -45.02938409 34.4887323 -51.98046875 39.2421875 C-54.82758107 41.1900264 -57.66104272 43.15624212 -60.48828125 45.1328125 C-61.22232178 45.64384521 -61.9563623 46.15487793 -62.71264648 46.68139648 C-64.12747074 47.66683747 -65.53985119 48.65579874 -66.94946289 49.64868164 C-71.77523846 53 -71.77523846 53 -74 53 C-74 52.34 -74 51.68 -74 51 C-71.86429255 49.43197341 -69.72923313 47.98725161 -67.5 46.5625 C-66.11909057 45.66122954 -64.73890618 44.75884742 -63.359375 43.85546875 C-62.64072266 43.3867334 -61.92207031 42.91799805 -61.18164062 42.43505859 C-57.67313222 40.12720134 -54.2091221 37.75602974 -50.75 35.375 C-50.07235596 34.90892334 -49.39471191 34.44284668 -48.6965332 33.96264648 C-44.98737208 31.40150528 -41.31854582 28.79637219 -37.6875 26.125 C-32.56151676 22.36855427 -27.35454234 18.7351572 -22.125 15.125 C-21.30346436 14.55281738 -20.48192871 13.98063477 -19.63549805 13.39111328 C-18.4585437 12.58262939 -18.4585437 12.58262939 -17.2578125 11.7578125 C-16.5580127 11.2745752 -15.85821289 10.79133789 -15.13720703 10.29345703 C-12.83400348 8.8995374 -10.52084813 7.93395357 -8 7 C-8 6.34 -8 5.68 -8 5 C-6.3203125 3.67578125 -6.3203125 3.67578125 -4.125 2.3125 C-3.40570313 1.85488281 -2.68640625 1.39726563 -1.9453125 0.92578125 C-1.30335938 0.62027344 -0.66140625 0.31476562 0 0 Z " fill="#0D7CF8" transform="translate(433,771)"/>
<path d="M0 0 C0.99 0.495 0.99 0.495 2 1 C-14.13902767 16.013049 -40.30914312 28.2265396 -62.6875 28.3125 C-64.12674077 28.23606081 -65.56604394 28.14500679 -67 28 C-64.21325741 25.21325741 -62.08085941 25.51794462 -58.1875 25.125 C-41.808442 23.16286445 -25.06908934 16.60083001 -11 8 C-10.34 8 -9.68 8 -9 8 C-9 7.34 -9 6.68 -9 6 C-7.03125 4.4921875 -7.03125 4.4921875 -4.5 2.875 C-3.6646875 2.33617187 -2.829375 1.79734375 -1.96875 1.2421875 C-1.3190625 0.83226562 -0.669375 0.42234375 0 0 Z " fill="#0D7EF8" transform="translate(741,730)"/>
<path d="M0 0 C2.45891901 2.45891901 2.73568687 4.14080111 3.5625 7.5 C3.81128906 8.4796875 4.06007813 9.459375 4.31640625 10.46875 C8.02640512 29.63354416 7.60740957 51.04928566 3 70 C2.67 70 2.34 70 2 70 C1.97236643 68.64595503 1.95332578 67.29173445 1.9375 65.9375 C1.92589844 65.18339844 1.91429687 64.42929687 1.90234375 63.65234375 C2 61 2 61 2.49780273 57.79638672 C2.99778283 54.01676083 3.12937229 50.41598901 3.1328125 46.60546875 C3.13424759 45.59532463 3.13424759 45.59532463 3.13571167 44.56477356 C3.13638687 43.15556748 3.13457911 41.74635816 3.13037109 40.3371582 C3.12497095 38.17587407 3.13035989 36.01479376 3.13671875 33.85351562 C3.13605867 32.47916621 3.13477897 31.10481692 3.1328125 29.73046875 C3.13168457 28.48676514 3.13055664 27.24306152 3.12939453 25.96166992 C3.20469374 23.06959803 3.20469374 23.06959803 2 21 C1.79219876 19.14999177 1.63280505 17.2943992 1.5 15.4375 C1.10759783 10.27398577 0.60004362 5.14323103 0 0 Z " fill="#0C80FB" transform="translate(656,398)"/>
<path d="M0 0 C-2.48032386 2.48032386 -4.24373787 2.72724554 -7.625 3.625 C-19.29237469 7.09681835 -29.90546343 12.94508704 -39.9609375 19.75 C-42 21 -42 21 -44 21 C-44 21.66 -44 22.32 -44 23 C-45.86328125 24.65625 -45.86328125 24.65625 -48.3125 26.5 C-49.11300781 27.1084375 -49.91351563 27.716875 -50.73828125 28.34375 C-52.46143275 29.60560879 -54.22292703 30.81528469 -56 32 C-55.48050038 27.06475364 -51.89851547 24.96703781 -48.27368164 22.00317383 C-35.84100829 12.11580057 -16.32219837 -0.80127156 0 0 Z " fill="#0F7FF8" transform="translate(329,238)"/>
<path d="M0 0 C0.33 0 0.66 0 1 0 C1.03738281 0.82242188 1.07476562 1.64484375 1.11328125 2.4921875 C1.50658949 14.65609869 1.50658949 14.65609869 7 25 C8.32520503 25.68268138 9.65812182 26.3507041 11 27 C11.33 27.33 11.66 27.66 12 28 C21.72045271 29.29606036 30.54483334 23.67240941 38 18 C38.66 18 39.32 18 40 18 C38.70987794 21.87036618 37.17612353 22.4417845 33.75 24.5625 C32.79609375 25.16191406 31.8421875 25.76132812 30.859375 26.37890625 C24.79764394 29.81554339 18.85885353 31.79870612 11.875 30.3125 C6.97531752 28.88145154 4.05064388 26.61348881 1.25 22.3125 C-1.55649067 14.87529971 -1.05408959 7.76782943 0 0 Z " fill="#0F7EF5" transform="translate(318,806)"/>
<path d="M0 0 C5.7244845 0.26502243 10.08925289 1.20236287 15.1171875 3.97265625 C17.18133231 5.14594377 17.18133231 5.14594377 20.25 6.3125 C30.33092959 10.59689507 38.78710092 16.87029824 47 24 C46.01 24.33 45.02 24.66 44 25 C42.01171875 23.62890625 42.01171875 23.62890625 39.6875 21.5625 C29.75481908 13.34728552 19.24136022 8.36927653 7.13305664 4.25756836 C6.35051514 3.98952393 5.56797363 3.72147949 4.76171875 3.4453125 C4.06006592 3.21344238 3.35841309 2.98157227 2.63549805 2.74267578 C1 2 1 2 0 0 Z " fill="#0C80FC" transform="translate(581,326)"/>
<path d="M0 0 C4.40382294 1.5470104 6.66801282 4.99354421 9.3125 8.625 C10.03445557 9.6140332 10.03445557 9.6140332 10.77099609 10.62304688 C14.10764101 15.36065846 16.80265639 20.1941117 19.125 25.5 C19.40770752 26.14533691 19.69041504 26.79067383 19.98168945 27.45556641 C21.71332491 31.66835931 22.52582857 35.51271917 23 40 C19.85885109 38.42942555 19.41407565 35.26282721 18.25 32.125 C14.33402542 22.02092229 9.70589754 13.38825312 2.63671875 5.09375 C1 3 1 3 0 0 Z " fill="#0D7FFB" transform="translate(633,357)"/>
<path d="M0 0 C0 0.33 0 0.66 0 1 C-1.07145264 1.029729 -1.07145264 1.029729 -2.16455078 1.06005859 C-19.79100997 1.4697684 -19.79100997 1.4697684 -37.265625 3.59765625 C-40.21144745 4.03111298 -43.02669171 4.06597578 -46 4 C-45.67 3.34 -45.34 2.68 -45 2 C-30.27914269 -2.22991723 -15.09290457 -0.95947991 0 0 Z " fill="#0F84FB" transform="translate(376,234)"/>
<path d="M0 0 C0 3.55867423 -0.45350636 3.88542688 -2.875 6.3125 C-11.00468058 14.03488195 -22.31101249 20.20957955 -33.75 20.25 C-34.8225 20.1675 -35.895 20.085 -37 20 C-33.94981987 18.27938557 -30.82409308 17.31134802 -27.46655273 16.35205078 C-16.34359443 13.15032145 -7.81351441 8.74492673 0 0 Z " fill="#0A7DFB" transform="translate(574,470)"/>
<path d="M0 0 C6.51819824 -0.35253776 11.54843995 0.8200815 17.6875 2.9375 C19.33647071 3.49057889 20.98619074 4.04142972 22.63671875 4.58984375 C23.3951709 4.84233887 24.15362305 5.09483398 24.93505859 5.35498047 C27.26570006 6.08299593 29.5893802 6.6121406 32 7 C32 7.66 32 8.32 32 9 C32.66 9 33.32 9 34 9 C34 9.66 34 10.32 34 11 C30.13285892 10.35665477 26.80365422 9.18688102 23.1875 7.6875 C15.62867236 4.70557717 7.90761599 2.81702601 0 1 C0 0.67 0 0.34 0 0 Z " fill="#0F7FF8" transform="translate(683,236)"/>
<path d="M0 0 C0.33 0 0.66 0 1 0 C2.15522366 14.07595601 1.79126827 27.90788886 1 42 C0.67 42 0.34 42 0 42 C-1.31252607 27.8903447 -1.10590777 14.1003241 0 0 Z " fill="#0E7CF5" transform="translate(318,758)"/>
<path d="M0 0 C0.33 0.66 0.66 1.32 1 2 C-0.32978601 4.6835862 -1.71638636 7.27040075 -3.1875 9.875 C-6.57989586 16.03723187 -9.31090913 21.98082577 -11.24609375 28.77734375 C-12 31 -12 31 -14 33 C-14.89885185 30.53522386 -15.09512767 29.29733893 -14.28515625 26.765625 C-13.88167969 25.93546875 -13.47820312 25.1053125 -13.0625 24.25 C-12.60359375 23.29738281 -12.1446875 22.34476562 -11.671875 21.36328125 C-11.12015625 20.25339844 -10.5684375 19.14351563 -10 18 C-9.31722295 16.59789251 -8.63495886 15.19553515 -7.953125 13.79296875 C-7.24073893 12.34057845 -6.52720109 10.88875251 -5.8125 9.4375 C-5.46775635 8.73463867 -5.1230127 8.03177734 -4.76782227 7.30761719 C-3.38064037 4.52986092 -2.21081264 2.21081264 0 0 Z " fill="#0E7CF6" transform="translate(255,290)"/>
<path d="M0 0 C0.99 0.33 1.98 0.66 3 1 C-4.80504169 8.66656514 -12.19105694 14.98064896 -22 20 C-22 19.01 -22 18.02 -22 17 C-19.7265625 15.2734375 -19.7265625 15.2734375 -16.625 13.375 C-10.50858513 9.46688693 -5.25342691 5.02097439 0 0 Z " fill="#0C80FC" transform="translate(630,519)"/>
<path d="M0 0 C0 0.33 0 0.66 0 1 C-1.27875 1.20625 -2.5575 1.4125 -3.875 1.625 C-8.90032461 2.6984475 -12.61526668 4.99479186 -16.8359375 7.85546875 C-17.55007813 8.23316406 -18.26421875 8.61085938 -19 9 C-19.99 8.67 -20.98 8.34 -22 8 C-19.89812468 6.68370433 -17.79368324 5.37187003 -15.6875 4.0625 C-14.79514648 3.50272461 -14.79514648 3.50272461 -13.88476562 2.93164062 C-8.66816216 -0.30323639 -6.03744019 -1.20748804 0 0 Z " fill="#0F80FA" transform="translate(458,761)"/>
<path d="M0 0 C6.54409037 -0.58169692 12.09295757 1.18757056 18 4 C19.828125 5.63671875 19.828125 5.63671875 21 7 C16.42600291 6.21511292 12.09842491 4.84473878 7.6875 3.4375 C6.94693359 3.20353516 6.20636719 2.96957031 5.44335938 2.72851562 C3.62816595 2.15468028 1.81397994 1.57765989 0 1 C0 0.67 0 0.34 0 0 Z " fill="#0C7FFC" transform="translate(539,386)"/>
<path d="M0 0 C-2.0372203 0.98838433 -4.07999607 1.96532252 -6.125 2.9375 C-7.83042969 3.75541016 -7.83042969 3.75541016 -9.5703125 4.58984375 C-12.78186661 5.9103119 -15.56709079 6.58784221 -19 7 C-18.67 6.01 -18.34 5.02 -18 4 C-15.52526748 2.92505652 -13.18550699 2.05432283 -10.625 1.25 C-9.93921875 1.01667969 -9.2534375 0.78335938 -8.546875 0.54296875 C-3.39381927 -1.13127309 -3.39381927 -1.13127309 0 0 Z " fill="#0D82FC" transform="translate(601,542)"/>
<path d="M0 0 C-6.49299641 4.32866427 -12.43779505 4.24220585 -20 4 C-17.44085276 1.44085276 -15.79558351 1.43065115 -12.25 0.875 C-11.22390625 0.70742188 -10.1978125 0.53984375 -9.140625 0.3671875 C-6.06077228 0.00710522 -3.09752203 -0.06491813 0 0 Z " fill="#0B7EFB" transform="translate(581,548)"/>
<path d="M0 0 C0.8971875 0.309375 0.8971875 0.309375 1.8125 0.625 C0.843125 1.305625 -0.12625 1.98625 -1.125 2.6875 C-3.96698387 5.01033928 -4.16335162 5.50425809 -4.9375 9.375 C-5.02 10.4475 -5.1025 11.52 -5.1875 12.625 C-6.1775 13.12 -6.1775 13.12 -7.1875 13.625 C-7.48280201 4.7659396 -7.48280201 4.7659396 -5.1875 1.625 C-2.1875 -0.375 -2.1875 -0.375 0 0 Z " fill="#0D82FB" transform="translate(475.1875,554.375)"/>
<path d="M0 0 C0.66 0 1.32 0 2 0 C0.58399311 6.13602988 -3.0663375 10.26698362 -7 15 C-7.33 14.34 -7.66 13.68 -8 13 C-6.80291048 10.70040581 -5.56726357 8.56020931 -4.1875 6.375 C-3.63352539 5.45847656 -3.63352539 5.45847656 -3.06835938 4.5234375 C-2.10644326 2.97608232 -1.05880355 1.48274264 0 0 Z " fill="#0C7CFC" transform="translate(646,497)"/>
<path d="M0 0 C0.99 0.33 1.98 0.66 3 1 C2.62488281 1.42410156 2.24976563 1.84820312 1.86328125 2.28515625 C-1.69664579 6.36517338 -4.91317997 10.5513476 -8 15 C-8.33 14.01 -8.66 13.02 -9 12 C-7.59166619 9.8037049 -6.18346343 7.83930111 -4.5625 5.8125 C-4.12873047 5.25369141 -3.69496094 4.69488281 -3.24804688 4.11914062 C-2.17453547 2.73891168 -1.0884306 1.36849461 0 0 Z " fill="#0C7AF6" transform="translate(266,274)"/>
<path d="M0 0 C4.9723422 1.49170266 9.41845739 3.60457417 14 6 C11.26980214 7.06528748 10.20701188 7.07998186 7.421875 6.00390625 C6.54015625 5.52824219 5.6584375 5.05257812 4.75 4.5625 C3.85796875 4.08941406 2.9659375 3.61632812 2.046875 3.12890625 C1.37140625 2.75636719 0.6959375 2.38382813 0 2 C0 1.34 0 0.68 0 0 Z " fill="#107FF9" transform="translate(300,743)"/>
<path d="M0 0 C0.33 0 0.66 0 1 0 C1.08117951 2.41734542 1.14056926 4.83194949 1.1875 7.25 C1.22520508 8.27287109 1.22520508 8.27287109 1.26367188 9.31640625 C1.31137459 12.59199289 1.21085076 14.65348556 -0.51171875 17.484375 C-1.00285156 17.98453125 -1.49398438 18.4846875 -2 19 C-2.66 18.67 -3.32 18.34 -4 18 C-3.525625 16.88625 -3.05125 15.7725 -2.5625 14.625 C-0.73814745 9.82316641 -0.30291156 5.09727034 0 0 Z " fill="#0B80FB" transform="translate(469,646)"/>
<path d="M0 0 C5.03985731 0.44469329 7.37634988 2.71343362 11 6 C10.67 6.99 10.34 7.98 10 9 C9.01 8.34 8.02 7.68 7 7 C7 6.34 7 5.68 7 5 C6.21625 4.731875 5.4325 4.46375 4.625 4.1875 C2 3 2 3 0 0 Z " fill="#0B7FFC" transform="translate(561,394)"/>
<path d="M0 0 C0.33 0.66 0.66 1.32 1 2 C0.22265625 3.9453125 0.22265625 3.9453125 -0.9375 6.125 C-1.31777344 6.84945313 -1.69804687 7.57390625 -2.08984375 8.3203125 C-2.39019531 8.87460937 -2.69054687 9.42890625 -3 10 C-3.33 10 -3.66 10 -4 10 C-4.41176754 6.39703406 -4.1535853 5.21597933 -2 2.1875 C-1.34 1.465625 -0.68 0.74375 0 0 Z " fill="#0B7EFB" transform="translate(395,322)"/>
<path d="M0 0 C0.33 0 0.66 0 1 0 C1 1.65 1 3.3 1 5 C0.67 5 0.34 5 0 5 C0 3.35 0 1.7 0 0 Z " fill="#1F91FC" transform="translate(466,475)"/>
<path d="M0 0 C0.99 0.33 1.98 0.66 3 1 C2.01 1 1.02 1 0 1 C0 0.67 0 0.34 0 0 Z " fill="#2590F4" transform="translate(290,741)"/>
<path d="M0 0 C0.33 0.99 0.66 1.98 1 3 C0.34 2.67 -0.32 2.34 -1 2 C-0.67 1.34 -0.34 0.68 0 0 Z " fill="#268EF0" transform="translate(252,700)"/>
<path d="M0 0 C1 4 1 4 1 4 Z " fill="#1F90FC" transform="translate(466,618)"/>
<path d="M0 0 C4 1 4 1 4 1 Z " fill="#2195FE" transform="translate(592,333)"/>
<path d="M0 0 C0.66 0 1.32 0 2 0 C1.67 0.66 1.34 1.32 1 2 C0.67 1.34 0.34 0.68 0 0 Z " fill="#288EF1" transform="translate(622,762)"/>
<path d="M0 0 C3 1 3 1 3 1 Z " fill="#258DF0" transform="translate(687,758)"/>
<path d="" fill="#2591F6" transform="translate(0,0)"/>
<path d="" fill="#1F92FC" transform="translate(0,0)"/>
<path d="" fill="#2391F4" transform="translate(0,0)"/>
<path d="M0 0 C0.66 0 1.32 0 2 0 C1.67 0.66 1.34 1.32 1 2 C0.67 1.34 0.34 0.68 0 0 Z " fill="#2294FD" transform="translate(502,322)"/>
<path d="M0 0 C3 1 3 1 3 1 Z " fill="#2390F2" transform="translate(674,232)"/>
<path d="M0 0 C2 1 2 1 2 1 Z " fill="#288FF3" transform="translate(606,762)"/>
<path d="M0 0 C2 1 2 1 2 1 Z " fill="#238FF0" transform="translate(680,759)"/>
<path d="" fill="#2793F5" transform="translate(0,0)"/>
<path d="M0 0 C2 1 2 1 2 1 Z " fill="#2393F8" transform="translate(306,749)"/>
<path d="" fill="#278FF1" transform="translate(0,0)"/>
<path d="M0 0 C2 1 2 1 2 1 Z " fill="#1F93FB" transform="translate(457,664)"/>
<path d="" fill="#2591F5" transform="translate(0,0)"/>
<path d="" fill="#2192FC" transform="translate(0,0)"/>
<path d="" fill="#2192FC" transform="translate(0,0)"/>
<path d="" fill="#2291F7" transform="translate(0,0)"/>
<path d="" fill="#2290F6" transform="translate(0,0)"/>
<path d="M0 0 C2 1 2 1 2 1 Z " fill="#1E93FE" transform="translate(514,493)"/>
<path d="M0 0 C2 1 2 1 2 1 Z " fill="#2194FD" transform="translate(499,493)"/>
<path d="M0 0 C2 1 2 1 2 1 Z " fill="#2196FE" transform="translate(543,491)"/>
<path d="M0 0 C2 1 2 1 2 1 Z " fill="#1E91FC" transform="translate(467,486)"/>
<path d="" fill="#2395FE" transform="translate(0,0)"/>
<path d="" fill="#2490F7" transform="translate(0,0)"/>
<path d="" fill="#2290F6" transform="translate(0,0)"/>
<path d="" fill="#2091FC" transform="translate(0,0)"/>
<path d="" fill="#2094FE" transform="translate(0,0)"/>
<path d="" fill="#268DF4" transform="translate(0,0)"/>
<path d="M0 0 C2 1 2 1 2 1 Z " fill="#2095FE" transform="translate(550,323)"/>
<path d="M0 0 C2 1 2 1 2 1 Z " fill="#2294FD" transform="translate(430,322)"/>
<path d="" fill="#268EF2" transform="translate(0,0)"/>
<path d="M0 0 C2 1 2 1 2 1 Z " fill="#268DEF" transform="translate(307,242)"/>
<path d="M0 0 C2 1 2 1 2 1 Z " fill="#238DEE" transform="translate(710,241)"/>
<path d="M0 0 C2 1 2 1 2 1 Z " fill="#2492F4" transform="translate(313,240)"/>
<path d="" fill="#11161B" transform="translate(0,0)"/>
<path d="" fill="#2782DD" transform="translate(0,0)"/>
<path d="" fill="#2681DE" transform="translate(0,0)"/>
<path d="" fill="#2488E6" transform="translate(0,0)"/>
<path d="" fill="#238BED" transform="translate(0,0)"/>
<path d="" fill="#2585E0" transform="translate(0,0)"/>
<path d="" fill="#2686E2" transform="translate(0,0)"/>
<path d="" fill="#2688E7" transform="translate(0,0)"/>
<path d="" fill="#2290F3" transform="translate(0,0)"/>
<path d="" fill="#248DF3" transform="translate(0,0)"/>
<path d="" fill="#208CF3" transform="translate(0,0)"/>
<path d="" fill="#248DF3" transform="translate(0,0)"/>
<path d="" fill="#238FF7" transform="translate(0,0)"/>
<path d="" fill="#2390F6" transform="translate(0,0)"/>
<path d="" fill="#2693F6" transform="translate(0,0)"/>
<path d="" fill="#2990F0" transform="translate(0,0)"/>
<path d="" fill="#2790F4" transform="translate(0,0)"/>
<path d="" fill="#2991F4" transform="translate(0,0)"/>
<path d="" fill="#2790F4" transform="translate(0,0)"/>
<path d="" fill="#2891F4" transform="translate(0,0)"/>
<path d="" fill="#278FF3" transform="translate(0,0)"/>
<path d="" fill="#2892F5" transform="translate(0,0)"/>
<path d="" fill="#2791F6" transform="translate(0,0)"/>
<path d="" fill="#2191F7" transform="translate(0,0)"/>
<path d="" fill="#238EEE" transform="translate(0,0)"/>
<path d="" fill="#2390F8" transform="translate(0,0)"/>
<path d="" fill="#288DEE" transform="translate(0,0)"/>
<path d="" fill="#2592F7" transform="translate(0,0)"/>
<path d="" fill="#2490F2" transform="translate(0,0)"/>
<path d="" fill="#268DF0" transform="translate(0,0)"/>
<path d="" fill="#2391F6" transform="translate(0,0)"/>
<path d="" fill="#278EEF" transform="translate(0,0)"/>
<path d="" fill="#2792F6" transform="translate(0,0)"/>
<path d="" fill="#238CF2" transform="translate(0,0)"/>
<path d="" fill="#238EF4" transform="translate(0,0)"/>
<path d="" fill="#2891EF" transform="translate(0,0)"/>
<path d="" fill="#2491F4" transform="translate(0,0)"/>
<path d="" fill="#288EED" transform="translate(0,0)"/>
<path d="" fill="#278CEE" transform="translate(0,0)"/>
<path d="" fill="#258FF0" transform="translate(0,0)"/>
<path d="" fill="#278DEF" transform="translate(0,0)"/>
<path d="" fill="#288BEB" transform="translate(0,0)"/>
<path d="" fill="#258FF1" transform="translate(0,0)"/>
<path d="" fill="#2293FD" transform="translate(0,0)"/>
<path d="" fill="#1D94FB" transform="translate(0,0)"/>
<path d="" fill="#1F92FA" transform="translate(0,0)"/>
<path d="" fill="#2295FC" transform="translate(0,0)"/>
<path d="" fill="#1F95FD" transform="translate(0,0)"/>
<path d="" fill="#1D92FD" transform="translate(0,0)"/>
<path d="" fill="#1E95FF" transform="translate(0,0)"/>
<path d="" fill="#2196FD" transform="translate(0,0)"/>
<path d="" fill="#268EF1" transform="translate(0,0)"/>
<path d="" fill="#238BF3" transform="translate(0,0)"/>
<path d="" fill="#2592F1" transform="translate(0,0)"/>
<path d="" fill="#268FF4" transform="translate(0,0)"/>
<path d="" fill="#238DF3" transform="translate(0,0)"/>
<path d="" fill="#2293FE" transform="translate(0,0)"/>
<path d="" fill="#2292FD" transform="translate(0,0)"/>
<path d="" fill="#2593F4" transform="translate(0,0)"/>
<path d="" fill="#1D90F9" transform="translate(0,0)"/>
<path d="" fill="#2392F5" transform="translate(0,0)"/>
<path d="" fill="#2391F5" transform="translate(0,0)"/>
<path d="" fill="#2092FD" transform="translate(0,0)"/>
<path d="" fill="#2391F5" transform="translate(0,0)"/>
<path d="" fill="#1E91FC" transform="translate(0,0)"/>
<path d="" fill="#2091FE" transform="translate(0,0)"/>
<path d="" fill="#228DF5" transform="translate(0,0)"/>
<path d="" fill="#218DF5" transform="translate(0,0)"/>
<path d="" fill="#2391FD" transform="translate(0,0)"/>
<path d="" fill="#2792F4" transform="translate(0,0)"/>
<path d="" fill="#2193FF" transform="translate(0,0)"/>
<path d="" fill="#2392FB" transform="translate(0,0)"/>
<path d="" fill="#2490F4" transform="translate(0,0)"/>
<path d="" fill="#2094FE" transform="translate(0,0)"/>
<path d="" fill="#2192FD" transform="translate(0,0)"/>
<path d="" fill="#2894F7" transform="translate(0,0)"/>
<path d="" fill="#2394FA" transform="translate(0,0)"/>
<path d="" fill="#2094FB" transform="translate(0,0)"/>
<path d="" fill="#2193FD" transform="translate(0,0)"/>
<path d="" fill="#2197FC" transform="translate(0,0)"/>
<path d="" fill="#2193FE" transform="translate(0,0)"/>
<path d="" fill="#2293FE" transform="translate(0,0)"/>
<path d="" fill="#2292FE" transform="translate(0,0)"/>
<path d="" fill="#1F93FE" transform="translate(0,0)"/>
<path d="" fill="#2192FB" transform="translate(0,0)"/>
<path d="" fill="#2290F3" transform="translate(0,0)"/>
<path d="" fill="#2290F5" transform="translate(0,0)"/>
<path d="" fill="#2593F5" transform="translate(0,0)"/>
<path d="" fill="#2894F7" transform="translate(0,0)"/>
<path d="" fill="#1F95FF" transform="translate(0,0)"/>
<path d="" fill="#1F97FF" transform="translate(0,0)"/>
<path d="" fill="#1F95FF" transform="translate(0,0)"/>
<path d="" fill="#1F96FF" transform="translate(0,0)"/>
<path d="" fill="#2094FD" transform="translate(0,0)"/>
<path d="" fill="#1F96FA" transform="translate(0,0)"/>
<path d="" fill="#228EF3" transform="translate(0,0)"/>
<path d="" fill="#1F91FA" transform="translate(0,0)"/>
<path d="" fill="#2392FA" transform="translate(0,0)"/>
<path d="" fill="#2893F6" transform="translate(0,0)"/>
<path d="" fill="#2198FD" transform="translate(0,0)"/>
<path d="" fill="#2894F6" transform="translate(0,0)"/>
<path d="" fill="#2194FD" transform="translate(0,0)"/>
<path d="" fill="#2190F6" transform="translate(0,0)"/>
<path d="" fill="#2094FC" transform="translate(0,0)"/>
<path d="" fill="#2296FF" transform="translate(0,0)"/>
<path d="" fill="#2893F7" transform="translate(0,0)"/>
<path d="" fill="#1F91FB" transform="translate(0,0)"/>
<path d="" fill="#2193FC" transform="translate(0,0)"/>
<path d="" fill="#2090FA" transform="translate(0,0)"/>
<path d="" fill="#1F92FC" transform="translate(0,0)"/>
<path d="" fill="#2292FE" transform="translate(0,0)"/>
<path d="" fill="#1F94FF" transform="translate(0,0)"/>
<path d="" fill="#1F92FB" transform="translate(0,0)"/>
<path d="" fill="#2190FC" transform="translate(0,0)"/>
<path d="" fill="#218FF5" transform="translate(0,0)"/>
<path d="" fill="#1F95FF" transform="translate(0,0)"/>
<path d="" fill="#2093FE" transform="translate(0,0)"/>
<path d="" fill="#1D92FE" transform="translate(0,0)"/>
<path d="" fill="#2192FD" transform="translate(0,0)"/>
<path d="" fill="#2193FC" transform="translate(0,0)"/>
<path d="" fill="#2193FE" transform="translate(0,0)"/>
<path d="" fill="#2292FC" transform="translate(0,0)"/>
<path d="" fill="#2293FD" transform="translate(0,0)"/>
<path d="" fill="#1F93FE" transform="translate(0,0)"/>
<path d="" fill="#2092FC" transform="translate(0,0)"/>
<path d="" fill="#2091FC" transform="translate(0,0)"/>
<path d="" fill="#2097FF" transform="translate(0,0)"/>
<path d="" fill="#1E96FE" transform="translate(0,0)"/>
<path d="" fill="#2394FA" transform="translate(0,0)"/>
<path d="" fill="#2193FD" transform="translate(0,0)"/>
<path d="" fill="#1E96FA" transform="translate(0,0)"/>
<path d="" fill="#2093FD" transform="translate(0,0)"/>
<path d="" fill="#2193FC" transform="translate(0,0)"/>
<path d="" fill="#2094FE" transform="translate(0,0)"/>
<path d="" fill="#2097FF" transform="translate(0,0)"/>
<path d="" fill="#2490F6" transform="translate(0,0)"/>
<path d="" fill="#2093FF" transform="translate(0,0)"/>
<path d="" fill="#1F94FE" transform="translate(0,0)"/>
<path d="" fill="#2790F0" transform="translate(0,0)"/>
<path d="" fill="#1E94FF" transform="translate(0,0)"/>
<path d="" fill="#2093FF" transform="translate(0,0)"/>
<path d="" fill="#2196FF" transform="translate(0,0)"/>
<path d="" fill="#2097FF" transform="translate(0,0)"/>
<path d="" fill="#2195FE" transform="translate(0,0)"/>
<path d="" fill="#1F94FD" transform="translate(0,0)"/>
<path d="" fill="#268DEE" transform="translate(0,0)"/>
<path d="" fill="#248FEF" transform="translate(0,0)"/>
<path d="" fill="#268FF0" transform="translate(0,0)"/>
<path d="" fill="#2293FE" transform="translate(0,0)"/>
<path d="" fill="#2590F1" transform="translate(0,0)"/>
<path d="" fill="#278EEE" transform="translate(0,0)"/>
<path d="" fill="#2A8FEE" transform="translate(0,0)"/>
<path d="" fill="#1F93FE" transform="translate(0,0)"/>
<path d="" fill="#2192FD" transform="translate(0,0)"/>
<path d="" fill="#1F97FF" transform="translate(0,0)"/>
<path d="" fill="#2095FF" transform="translate(0,0)"/>
<path d="" fill="#2293FC" transform="translate(0,0)"/>
<path d="" fill="#2394FC" transform="translate(0,0)"/>
<path d="" fill="#2395FD" transform="translate(0,0)"/>
<path d="" fill="#2194FF" transform="translate(0,0)"/>
<path d="" fill="#2396FD" transform="translate(0,0)"/>
<path d="" fill="#2496FE" transform="translate(0,0)"/>
<path d="" fill="#248EF4" transform="translate(0,0)"/>
<path d="" fill="#298FF2" transform="translate(0,0)"/>
<path d="" fill="#258DF0" transform="translate(0,0)"/>
<path d="" fill="#268DEF" transform="translate(0,0)"/>
<path d="" fill="#268CEC" transform="translate(0,0)"/>
<path d="" fill="#278FF1" transform="translate(0,0)"/>
<path d="" fill="#2588EA" transform="translate(0,0)"/>
<path d="" fill="#218BF1" transform="translate(0,0)"/>
<path d="" fill="#248CEE" transform="translate(0,0)"/>
<path d="" fill="#228CF2" transform="translate(0,0)"/>
<path d="" fill="#2491F0" transform="translate(0,0)"/>
<path d="" fill="#268DEF" transform="translate(0,0)"/>
<path d="" fill="#248FF0" transform="translate(0,0)"/>
<path d="" fill="#2690EE" transform="translate(0,0)"/>
<path d="" fill="#2590F0" transform="translate(0,0)"/>
<path d="" fill="#268DF0" transform="translate(0,0)"/>
<path d="" fill="#268EF0" transform="translate(0,0)"/>
<path d="" fill="#268EF0" transform="translate(0,0)"/>
<path d="" fill="#2390F1" transform="translate(0,0)"/>
<path d="" fill="#258EEF" transform="translate(0,0)"/>
<path d="" fill="#2590F1" transform="translate(0,0)"/>
<path d="" fill="#278EF0" transform="translate(0,0)"/>
<path d="" fill="#288EEF" transform="translate(0,0)"/>
<path d="" fill="#258FED" transform="translate(0,0)"/>
<path d="" fill="#268EF2" transform="translate(0,0)"/>
<path d="" fill="#258DF0" transform="translate(0,0)"/>
<path d="" fill="#2490F2" transform="translate(0,0)"/>
<path d="" fill="#192228" transform="translate(0,0)"/>
<path d="" fill="#1D242C" transform="translate(0,0)"/>
<path d="" fill="#1B1C20" transform="translate(0,0)"/>
<path d="" fill="#1A1C20" transform="translate(0,0)"/>
</svg>
